<svg width="512" height="512" viewBox="0 0 512 512" fill="none" xmlns="http://www.w3.org/2000/svg">
<path d="M256 466.282C256 466.282 511.465 343.665 511.465 166.628C511.193 163.115 510.83 159.586 510.344 156.036C487.731 -9.263 287.554 7.066 256 107.757L167.241 374.061L256 466.282Z" fill="#F3746B"/>
<path d="M256 386.993C249.034 393.362 239.76 397.249 229.578 397.249C207.943 397.249 190.404 379.71 190.404 358.075C190.404 336.44 207.943 318.901 229.578 318.901C239.76 318.901 249.034 322.788 256 329.157V231.798C262.966 238.167 272.24 242.053 282.423 242.053C304.058 242.053 321.597 224.514 321.597 202.879C321.597 181.244 304.058 163.705 282.423 163.705C272.24 163.705 262.967 167.592 256 173.96V107.757C224.445 7.066 24.2689 -9.263 1.65591 156.036C1.16991 159.586 0.806912 163.116 0.534912 166.628C0.534912 348.172 256 466.282 256 466.282V386.993Z" fill="#FFB8C7"/>
</svg>
