<svg width="512" height="512" viewBox="0 0 512 512" fill="none" xmlns="http://www.w3.org/2000/svg">
<path d="M256 512C397.385 512 512 397.385 512 256C512 114.615 397.385 0 256 0C114.615 0 0 114.615 0 256C0 397.385 114.615 512 256 512Z" fill="#14A7FF"/>
<path d="M164.267 104.533H194.133V134.4H164.267V104.533Z" fill="white"/>
<path d="M226.133 104.533H256V134.4H226.133V104.533Z" fill="white"/>
<path d="M104.533 285.867H134.4V315.733H104.533V285.867Z" fill="white"/>
<path d="M285.867 104.533H315.733V134.4H285.867V104.533Z" fill="white"/>
<path d="M392.533 194.133H315.733V164.267H285.867V194.133H211.2C202.667 194.133 196.267 200.533 196.267 209.067V285.867H164.267V315.733H194.133V392.533C194.133 401.067 200.533 407.467 209.067 407.467H377.6L349.867 360.533L315.733 394.667V270.933L407.467 324.267V211.2C407.467 200.533 403.2 194.133 392.533 194.133V194.133Z" fill="white"/>
<path d="M104.533 226.133H134.4V256H104.533V226.133Z" fill="white"/>
<path d="M407.467 396.8C407.467 394.667 407.467 394.667 407.467 392.533V337.067L377.6 345.6L407.467 396.8Z" fill="white"/>
<path d="M104.533 104.533H134.4V134.4H104.533V104.533Z" fill="white"/>
<path d="M104.533 164.267H134.4V194.133H104.533V164.267Z" fill="white"/>
</svg>
