<svg width="512" height="478" viewBox="0 0 512 478" fill="none" xmlns="http://www.w3.org/2000/svg">
<path d="M365.538 0.206001C321.957 0.206001 282.829 19.238 256 49.43C229.171 19.237 190.043 0.206001 146.462 0.206001C65.573 0.206001 0 65.742 0 146.585C0 344.339 256 477.155 256 477.155C256 477.155 512 344.339 512 146.585C512 65.742 446.427 0.206001 365.538 0.206001Z" fill="#A3C4F3"/>
<path d="M365.538 0.206001C358.546 0.206001 351.669 0.697001 344.938 1.644C416.069 11.655 470.792 72.733 470.792 146.586C470.792 309.887 296.223 428.906 235.396 465.421C248.229 473.124 256 477.155 256 477.155C256 477.155 512 344.339 512 146.585C512 65.742 446.427 0.206001 365.538 0.206001Z" fill="#A3C4F3"/>
<path d="M41.207 154.312C36.939 154.312 33.481 150.853 33.481 146.586C33.481 84.333 84.164 33.687 146.462 33.687C150.73 33.687 154.188 37.146 154.188 41.413C154.188 45.68 150.729 49.139 146.462 49.139C92.684 49.139 48.934 92.853 48.934 146.585C48.934 150.853 45.475 154.312 41.207 154.312Z" fill="#A3C4F3"/>
<path d="M256.308 372.06C269.18 372.06 279.616 361.749 279.616 349.03C279.616 336.311 269.18 326 256.308 326C243.435 326 233 336.311 233 349.03C233 361.749 243.435 372.06 256.308 372.06Z" fill="#FAF7F7"/>
<path d="M255.912 306C246.816 306 239.441 298.714 239.441 289.725V224.501C239.441 215.513 246.816 208.227 255.912 208.227C285.603 208.227 310.38 182.992 308.809 153.081C307.379 125.862 284.628 104.11 257.013 103.56C227.986 102.977 202.942 126.642 202.942 155.887C202.942 164.876 195.568 172.162 186.471 172.162C177.374 172.162 170 164.876 170 155.887C170 108.513 210.641 70.0863 257.677 71.0165C302.476 71.9086 339.386 107.215 341.707 151.394C343.91 193.33 313.575 231.407 272.383 239.236V289.725C272.383 298.714 265.009 306 255.912 306V306Z" fill="#FAF7F7"/>
</svg>
