<svg width="372" height="512" viewBox="0 0 372 512" fill="none" xmlns="http://www.w3.org/2000/svg">
<path d="M371.4 140.2V479C371.4 497.2 356.6 512 338.4 512H33.6C15.4 512 0.599976 497.2 0.599976 479V33C0.599976 14.8 15.4 0 33.6 0H231.2L371.4 140.2Z" fill="#744ABD"/>
<path d="M117 257.7H280.8V278.8H117V257.7Z" fill="white"/>
<path d="M79.8 280C86.317 280 91.6 274.717 91.6 268.2C91.6 261.683 86.317 256.4 79.8 256.4C73.283 256.4 68 261.683 68 268.2C68 274.717 73.283 280 79.8 280Z" fill="white"/>
<path d="M117 317.7H280.8V338.8H117V317.7Z" fill="white"/>
<path d="M79.8 340C86.317 340 91.6 334.717 91.6 328.2C91.6 321.683 86.317 316.4 79.8 316.4C73.283 316.4 68 321.683 68 328.2C68 334.717 73.283 340 79.8 340Z" fill="white"/>
<path d="M117 377.7H280.8V398.8H117V377.7Z" fill="white"/>
<path d="M79.8 400C86.317 400 91.6 394.717 91.6 388.2C91.6 381.683 86.317 376.4 79.8 376.4C73.283 376.4 68 381.683 68 388.2C68 394.717 73.283 400 79.8 400Z" fill="white"/>
<path opacity="0.19" d="M250.3 135.4L371.4 233.5V141.4L302.7 101.5L250.3 135.4Z" fill="#744ABD"/>
<path d="M371.4 140.2H264.2C246 140.2 231.2 125.4 231.2 107.2V0L371.4 140.2Z" fill="#B7A2DD"/>
</svg>
