<svg width="512" height="490" viewBox="0 0 512 490" fill="none" xmlns="http://www.w3.org/2000/svg">
<path d="M498.753 175.687L340.589 152.703L269.856 9.38423C267.023 3.64611 261.512 0.771896 256 0.771896L256.021 413.051L397.465 487.42C408.808 493.375 422.045 483.753 419.882 471.133L392.871 313.597L507.314 202.039C516.493 193.097 511.424 177.531 498.753 175.687V175.687Z" fill="#FFD06A"/>
<path d="M359.658 302.811C359.658 302.811 384.052 445.007 384.135 445.481C384.052 445.471 257.989 413.546 256.021 413.051C256.001 413.041 114.536 487.42 114.536 487.42C103.193 493.375 89.9556 483.753 92.119 471.133L119.13 313.597L4.68732 202.039C-4.49161 193.097 0.576888 177.531 13.2481 175.687L171.412 152.703L242.145 9.38423C244.978 3.64611 250.489 0.771896 256.001 0.771896L320.068 180.951L463.325 201.771L359.658 302.811Z" fill="#FFD06A"/>
</svg>
