<svg width="231" height="221" viewBox="0 0 231 221" fill="none" xmlns="http://www.w3.org/2000/svg">
<path d="M225.025 88.2317C226.225 87.0317 226.225 85.2317 225.025 84.0317C224.625 83.6317 224.025 83.2317 223.425 83.2317L152.225 72.8317C151.225 72.6317 150.425 72.0317 150.025 71.2317L118.025 6.63167C117.225 5.23167 115.625 4.63168 114.025 5.23168C113.425 5.43168 113.025 6.03167 112.625 6.63167L80.8253 71.2317C80.4253 72.0317 79.6254 72.6317 78.6254 72.8317L7.42535 83.2317C5.82535 83.4317 4.82536 85.0317 5.02536 86.6317C5.02536 87.2317 5.42535 87.8317 5.82535 88.2317L57.4254 138.432C58.0254 139.032 58.4254 140.032 58.2254 141.032L46.0254 212.032C45.8254 213.632 46.8254 215.032 48.4254 215.432C49.0254 215.632 49.6254 215.432 50.2254 215.232L114.025 181.632C114.825 181.232 115.825 181.232 116.825 181.632L180.625 215.232C182.025 216.032 183.825 215.432 184.625 214.032C184.825 213.432 185.025 212.832 184.825 212.232L172.625 141.232C172.425 140.232 172.825 139.232 173.425 138.632L225.025 88.2317Z" fill="#FF8101"/>
<path d="M230.329 83.6C229.329 80.8 226.929 78.6 223.929 78.2L153.729 68L122.329 4.40001C120.929 1.60001 118.329 0 115.329 0C112.329 0 109.529 1.80001 108.329 4.40001L76.9293 68L6.72926 78.2C2.32926 78.8 -0.670735 82.8 0.129265 87.2C0.329265 89 1.12926 90.6 2.52926 91.8L53.3293 141.2L41.3293 211C40.5293 215.4 43.5293 219.4 47.7293 220.2C49.5293 220.4 51.1293 220.2 52.7293 219.4L115.529 186.4L178.329 219.4C182.129 221.4 186.929 220 188.929 216C189.729 214.4 189.929 212.6 189.729 211L177.729 141.2L228.529 91.8C230.529 89.6 231.329 86.4 230.329 83.6ZM169.729 134.8C167.929 136.6 166.929 139.2 167.529 141.8L178.929 208.6L118.929 177C116.529 175.8 113.929 175.8 111.529 177L51.5293 208.6L62.9293 141.8C63.3293 139.2 62.5293 136.6 60.7293 134.8L12.1293 87.4L79.1293 77.6C81.7293 77.2 83.9293 75.6 85.1293 73.2L115.129 12.4L145.129 73.2C146.329 75.6 148.529 77.2 151.129 77.6L218.129 87.4L169.729 134.8Z" fill="#FF8101"/>
</svg>
